<svg width="40" height="40" viewBox="0 0 40 40" fill="none" xmlns="http://www.w3.org/2000/svg">
<path d="M25.3333 7H15.3333C10.7317 7 7 10.7317 7 15.3333V25.3333C7 29.935 10.7317 33.6667 15.3333 33.6667H25.3333C29.935 33.6667 33.6667 29.935 33.6667 25.3333V15.3333C33.6667 10.7317 29.935 7 25.3333 7ZM31.1667 25.3333C31.1667 28.55 28.55 31.1667 25.3333 31.1667H15.3333C12.1167 31.1667 9.5 28.55 9.5 25.3333V15.3333C9.5 12.1167 12.1167 9.5 15.3333 9.5H25.3333C28.55 9.5 31.1667 12.1167 31.1667 15.3333V25.3333Z" fill="#FCFCFC"/>
<path d="M20.3332 13.666C16.6515 13.666 13.6665 16.651 13.6665 20.3327C13.6665 24.0143 16.6515 26.9993 20.3332 26.9993C24.0148 26.9993 26.9998 24.0143 26.9998 20.3327C26.9998 16.651 24.0148 13.666 20.3332 13.666ZM20.3332 24.4993C18.0365 24.4993 16.1665 22.6293 16.1665 20.3327C16.1665 18.0343 18.0365 16.166 20.3332 16.166C22.6298 16.166 24.4998 18.0343 24.4998 20.3327C24.4998 22.6293 22.6298 24.4993 20.3332 24.4993Z" fill="#FCFCFC"/>
<path d="M27.4999 14.056C27.9905 14.056 28.3882 13.6582 28.3882 13.1676C28.3882 12.677 27.9905 12.2793 27.4999 12.2793C27.0093 12.2793 26.6116 12.677 26.6116 13.1676C26.6116 13.6582 27.0093 14.056 27.4999 14.056Z" fill="#FCFCFC"/>
</svg>
