<svg width="41" height="40" viewBox="0 0 41 40" fill="none" xmlns="http://www.w3.org/2000/svg">
<g filter="url(#filter0_d_2777_60)">
<path d="M34.4999 12.8993C34.7166 12.1993 34.4999 11.666 33.4666 11.666H30.0999C29.2333 11.666 28.8499 12.116 28.6333 12.616C28.6333 12.616 26.9166 16.7993 24.4833 19.5327C23.6833 20.316 23.3333 20.566 22.8999 20.566C22.6833 20.566 22.3333 20.316 22.3333 19.5993V12.8993C22.3333 12.0493 22.1333 11.666 21.4166 11.666H16.0999C15.5666 11.666 15.2499 12.066 15.2499 12.4493C15.2499 13.2493 16.4999 13.4493 16.5833 15.7327V20.6993C16.5833 21.7993 16.3833 21.9993 15.9666 21.9993C14.8333 21.9993 12.0333 17.7827 10.3833 12.9827C10.0499 12.0493 9.73325 11.666 8.86659 11.666H5.48325C4.53325 11.666 4.33325 12.116 4.33325 12.616C4.33325 13.516 5.48325 17.9493 9.66659 23.816C12.4499 27.8327 16.3833 29.9993 19.9666 29.9993C22.1166 29.9993 22.3833 29.516 22.3833 28.6827V25.6494C22.3833 24.6994 22.5833 24.4993 23.2666 24.4993C23.7666 24.4993 24.6166 24.7493 26.6166 26.666C28.9166 28.966 29.2833 29.9993 30.5833 29.9993H33.9499C34.9166 29.9993 35.3999 29.516 35.1333 28.566C34.8333 27.616 33.7333 26.2327 32.2833 24.5993C31.4999 23.6827 30.3166 22.6827 29.9499 22.166C29.4499 21.5327 29.5999 21.2493 29.9499 20.666C29.9499 20.666 34.0666 14.8827 34.4999 12.8993Z" fill="#FCFCFC"/>
</g>
<defs>
<filter id="filter0_d_2777_60" x="-3" y="0" width="48" height="48" filterUnits="userSpaceOnUse" color-interpolation-filters="sRGB">
<feFlood flood-opacity="0" result="BackgroundImageFix"/>
<feColorMatrix in="SourceAlpha" type="matrix" values="0 0 0 0 0 0 0 0 0 0 0 0 0 0 0 0 0 0 127 0" result="hardAlpha"/>
<feOffset dy="4"/>
<feGaussianBlur stdDeviation="2"/>
<feComposite in2="hardAlpha" operator="out"/>
<feColorMatrix type="matrix" values="0 0 0 0 0 0 0 0 0 0 0 0 0 0 0 0 0 0 0.25 0"/>
<feBlend mode="normal" in2="BackgroundImageFix" result="effect1_dropShadow_2777_60"/>
<feBlend mode="normal" in="SourceGraphic" in2="effect1_dropShadow_2777_60" result="shape"/>
</filter>
</defs>
</svg>
