<svg width="322" height="392" viewBox="0 0 322 392" fill="none" xmlns="http://www.w3.org/2000/svg">
<line x1="2.68663" y1="220.275" x2="98.6866" y2="46.2754" stroke="white" stroke-width="3"/>
<line x1="3.47729" y1="221.74" x2="25.4773" y2="346.74" stroke="white" stroke-width="3"/>
<line x1="3.30613" y1="221.262" x2="99.3061" y2="391.262" stroke="white" stroke-width="3"/>
<line x1="24.7794" y1="345.718" x2="98.7794" y2="390.718" stroke="white" stroke-width="3"/>
<line x1="1.94903" y1="219.93" x2="223.949" y2="1.92974" stroke="white" stroke-width="3"/>
<line x1="1.23794" y1="220.708" x2="296.238" y2="46.708" stroke="white" stroke-width="3"/>
<line x1="97" y1="46.5" x2="296" y2="46.5" stroke="white" stroke-width="3"/>
<line x1="222.79" y1="2.72499" x2="293.79" y2="46.725" stroke="white" stroke-width="3"/>
<line x1="1.76843" y1="220.518" x2="321.768" y2="170.518" stroke="white" stroke-width="3"/>
<line x1="222.691" y1="346.267" x2="320.691" y2="171.267" stroke="white" stroke-width="3"/>
<line x1="97.9465" y1="390.932" x2="320.947" y2="170.932" stroke="white" stroke-width="3"/>
<line x1="295.471" y1="47.7058" x2="320.471" y2="172.706" stroke="white" stroke-width="3"/>
<line x1="222.296" y1="3.2442" x2="320.296" y2="171.244" stroke="white" stroke-width="3"/>
<line x1="2.73595" y1="220.693" x2="224.736" y2="345.693" stroke="white" stroke-width="3"/>
<line x1="24" y1="345.5" x2="224" y2="345.5" stroke="white" stroke-width="3"/>
</svg>
